<?xml version="1.0" encoding="utf-8"?>
<!-- Generator: Adobe Illustrator 21.1.0, SVG Export Plug-In . SVG Version: 6.00 Build 0)  -->
<svg version="1.1" id="Calque_1" xmlns="http://www.w3.org/2000/svg" xmlns:xlink="http://www.w3.org/1999/xlink" x="0px" y="0px"
	 viewBox="0 0 100 50" style="enable-background:new 0 0 100 50;" xml:space="preserve">
<style type="text/css">
	.st0{fill:#C1CCD4;}
	.st1{fill:none;}
	.st2{fill:#005474;}
	.st3{fill:#AED5AA;}
	.st4{fill:#CBD9DE;}
</style>
<g>
	<path class="st0" d="M46,11.4L46,11.4h-1.4C45.1,11.4,45.6,11.4,46,11.4C46,11.4,46,11.4,46,11.4z"/>
	<g>
		<path class="st1" d="M7.7,19.9L7.7,19.9c-0.4,2.2-0.6,4.5-0.7,6.7c2.8,0.1,4.1,0,4.1-0.5c-0.1-2.8-0.5-4.7-1.2-5.9
			C9.3,19.9,8.4,19.7,7.7,19.9z"/>
		<path class="st1" d="M93.1,28.2L93.1,28.2L93.1,28.2L93.1,28.2z"/>
		<path class="st1" d="M11.6,20.9c21.8,0.3,46.2,1.2,73.1,2.8c0.3-0.2-3.7-0.5-12.3-1C32.4,20.9,12.2,20.3,11.6,20.9z"/>
		<path class="st1" d="M92.5,33L92.5,33c-0.2,0-0.3,0.6-0.3,1.2c0,0.7,0.1,1.2,0.3,1.2s0.3-0.6,0.3-1.2S92.7,33,92.5,33z"/>
		<path class="st1" d="M7.7,19.9L7.7,19.9c-0.4,2.2-0.6,4.5-0.7,6.7c2.8,0.1,4.1,0,4.1-0.5c-0.1-2.8-0.5-4.7-1.2-5.9
			C9.3,19.9,8.4,19.7,7.7,19.9z"/>
		<path class="st1" d="M25.2,18.5c0.8-1.7,1.9-4.1,3.2-7c-3.1-0.1-7.8,0.1-14,0.6c-0.7,0.4-1.9,2.3-3.3,5.7l0,0
			C15.3,18.1,20.1,18.3,25.2,18.5z"/>
		<path class="st1" d="M27.6,18.8c1.7,0.1,3.2,0.2,4.9,0.3l0,0c0.1,0,0.3,0,0.4,0l0,0c11.5,0.6,22.2,1.1,36.3,1.3
			c-6.8-4.7-11.8-7.4-15.1-8.1c-2.2-0.5-4.8-0.7-8-0.9l0,0l0,0h-1.4c-2.6-0.1-5.5-0.1-8.7-0.1c-2.6,0-4.6,0.1-5.2,0.4
			C30.3,11.8,28.4,16.7,27.6,18.8L27.6,18.8z"/>
		<path class="st1" d="M93.1,28.2L93.1,28.2L93.1,28.2L93.1,28.2z"/>
		<g>
			<path class="st1" d="M70.4,29.7H32.8c-0.1,0-0.1,0.1-0.1,0.1s0.1,0.1,0.1,0.1h37.7c0.1,0,0.1-0.1,0.1-0.1
				C70.5,29.7,70.5,29.7,70.4,29.7z"/>
			<path class="st1" d="M29.6,22.3c-0.6-0.1-1.2-0.1-1.7-0.1l0,0c-0.6-0.1-1.2-0.1-1.7,0h-0.1c-0.1,0.1-0.3,0.2-0.2,0.3
				c0,0.2,0.2,0.3,0.4,0.4c0.6,0.1,1.1,0.1,1.7,0.1c1.1,0,1.9-0.1,1.9-0.3l0,0C29.8,22.5,29.7,22.3,29.6,22.3z"/>
			<path class="st1" d="M48.5,23.6c0.6,0.1,1.1,0.1,1.7,0.1c1.1,0,1.9-0.1,1.9-0.3l0,0c0.1-0.1-0.1-0.3-0.2-0.3
				c-0.6-0.1-1.2-0.1-1.7-0.1l0,0c-0.6-0.1-1.2-0.1-1.7,0h-0.1c-0.1,0.1-0.3,0.2-0.2,0.3C48.1,23.5,48.3,23.6,48.5,23.6z"/>
			<path class="st1" d="M7.7,19.9L7.7,19.9c-0.4,2.2-0.6,4.5-0.7,6.7c2.8,0.1,4.1,0,4.1-0.5c-0.1-2.8-0.5-4.7-1.2-5.9
				C9.3,19.9,8.4,19.7,7.7,19.9z"/>
			<path class="st1" d="M25.2,18.5c0.8-1.7,1.9-4.1,3.2-7c-3.1-0.1-7.8,0.1-14,0.6c-0.7,0.4-1.9,2.3-3.3,5.7l0,0
				C15.3,18.1,20.1,18.3,25.2,18.5z"/>
			<path class="st1" d="M27.6,18.8c1.7,0.1,3.2,0.2,4.9,0.3l0,0c0.1,0,0.3,0,0.4,0l0,0c11.5,0.6,22.2,1.1,36.3,1.3
				c-6.8-4.7-11.8-7.4-15.1-8.1c-2.2-0.5-4.8-0.7-8-0.9l0,0l0,0h-1.4c-2.6-0.1-5.5-0.1-8.7-0.1c-2.6,0-4.6,0.1-5.2,0.4
				C30.3,11.8,28.4,16.7,27.6,18.8L27.6,18.8z"/>
			<path class="st1" d="M89.7,24.1c-1.5-0.3-3-0.6-4.5-0.6c-0.1,1.3,1.1,2.3,3.5,3.2c2.3,1,3.7,1.5,4.4,1.4
				C92.6,26.4,91.3,25,89.7,24.1z"/>
			<path class="st1" d="M92.5,33L92.5,33c-0.2,0-0.3,0.6-0.3,1.2c0,0.7,0.1,1.2,0.3,1.2s0.3-0.6,0.3-1.2S92.7,33,92.5,33z"/>
			<path class="st1" d="M93.1,28.2L93.1,28.2L93.1,28.2L93.1,28.2z"/>
			<path class="st1" d="M11.6,20.9c21.8,0.3,46.2,1.2,73.1,2.8c0.3-0.2-3.7-0.5-12.3-1C32.4,20.9,12.2,20.3,11.6,20.9z"/>
			<g>
				<g>
					<path class="st1" d="M22.8,32.7c0-0.1,0.1-0.2,0.1-0.3c-0.5-0.1-1-0.2-1.4-0.4c-0.5-0.2-0.9-0.6-1.2-1c-0.3,0.6-0.5,1.3-0.5,2
						c0,0,0,0.1,0,0.1c0.5-0.3,1-0.5,1.6-0.5C21.9,32.5,22.4,32.6,22.8,32.7z"/>
					<path class="st1" d="M24.4,35.8c-0.1-0.5-0.1-0.9-0.1-1.4l0,0c-0.1,0-0.2,0-0.3,0c0,0.5-0.1,0.9-0.3,1.3
						c-0.3,0.8-0.8,1.5-1,1.4c0.5,0.2,1,0.3,1.6,0.3c0.3,0,0.6,0,0.8-0.1C24.9,37.3,24.6,36.7,24.4,35.8z"/>
					<path class="st1" d="M22.8,35.4c0.1-0.4,0.4-0.8,0.7-1.2l0,0c-0.1-0.1-0.2-0.1-0.3-0.3c-0.3,0.3-0.6,0.7-1,1
						c-0.4,0.4-1,0.6-1.5,0.6c0.5,0.7,1.2,1.2,1.9,1.5C22.5,37,22.5,36.2,22.8,35.4z"/>
					<path class="st1" d="M23.2,32c0.1-0.1,0.1-0.2,0.3-0.3c-0.4-0.3-0.8-0.7-1-1.1c-0.3-0.4-0.5-0.9-0.6-1.5
						c-0.6,0.4-1.1,0.9-1.5,1.5c0.6,0,1,0.1,1.5,0.4C22.4,31.3,22.8,31.5,23.2,32z"/>
					<path class="st1" d="M23.2,30.1c0.3,0.4,0.5,0.9,0.6,1.4l0,0c0.1-0.1,0.3-0.1,0.4-0.1c-0.2-0.5-0.3-1-0.3-1.5
						c0-0.6,0.1-1,0.3-1.5c-0.7,0-1.4,0.2-2,0.6C22.6,29.3,23,29.7,23.2,30.1z"/>
					<path class="st1" d="M25.3,31.8L25.3,31.8c0.1,0.1,0.3,0.2,0.3,0.3c0.3-0.3,0.8-0.6,1.3-0.7c0.5-0.2,1-0.3,1.5-0.2
						c-0.3-0.7-0.8-1.4-1.4-1.8c-0.1,0.5-0.3,1-0.7,1.4C26.1,31.2,25.8,31.5,25.3,31.8z"/>
					<path class="st1" d="M24.6,31.4c0.1,0,0.3,0.1,0.5,0.1c0.1-0.5,0.3-1,0.7-1.4c0.3-0.4,0.7-0.8,1.1-1c-0.7-0.5-1.5-0.7-2.3-0.8
						c0.2,0.5,0.3,1,0.3,1.5C24.9,30.4,24.8,31,24.6,31.4z"/>
					<path class="st1" d="M21.7,34.2c0.3-0.3,0.8-0.5,1.2-0.6c-0.1-0.1-0.1-0.3-0.1-0.3c-0.4,0.2-0.9,0.3-1.4,0.3
						c-0.6,0.1-1.1,0-1.6-0.3c0.1,0.8,0.3,1.6,0.8,2.2C20.8,34.9,21.2,34.4,21.7,34.2z"/>
					<path class="st1" d="M24.3,27.6c-2.9,0-5.3,2.3-5.3,5.3s2.3,5.3,5.3,5.3c3,0,5.3-2.3,5.3-5.3S27.2,27.6,24.3,27.6z M24.3,38
						c-2.8,0-5-2.3-5-5s2.3-5,5-5l0,0c2.8,0,5,2.3,5,5S27.1,38,24.3,38z"/>
					<path class="st1" d="M25.9,35.3c-0.3-0.3-0.6-0.8-0.8-1.2l0,0c-0.1,0.1-0.2,0.1-0.3,0.1c0.2,0.4,0.4,0.8,0.5,1.3
						c0.1,0.8,0.1,1.6-0.1,1.7c0.8-0.1,1.5-0.6,2.1-1C26.8,36.1,26.3,35.8,25.9,35.3z"/>
					<path class="st1" d="M27.1,34c-0.5-0.1-0.9-0.3-1.3-0.6h-0.1c-0.1,0.1-0.1,0.3-0.2,0.3c0.4,0.2,0.8,0.5,1.1,0.9
						c0.4,0.3,0.8,0.9,0.8,1.5c0.6-0.6,1-1.3,1.2-2.1C28.1,34.2,27.6,34.2,27.1,34z"/>
					<path class="st1" d="M28.6,31.5c-0.3,0.4-0.8,0.7-1.4,0.8c-0.5,0.2-1,0.3-1.5,0.3l0,0c0,0.1,0,0.2,0.1,0.3c0,0,0,0.1,0,0.1
						c0.5-0.1,1,0,1.5,0.1c0.6,0.1,1,0.3,1.5,0.7C28.9,33.1,28.9,32.2,28.6,31.5z"/>
					<path class="st2" d="M24.3,25.8c-3.9,0-7.1,3.2-7.1,7.2c0,3.9,3.2,7.1,7.1,7.1s7.1-3.2,7.1-7.1C31.5,29,28.3,25.8,24.3,25.8z
						 M24.3,38.2c-2.9,0-5.3-2.3-5.3-5.3s2.3-5.3,5.3-5.3c3,0,5.3,2.3,5.3,5.3S27.2,38.2,24.3,38.2z"/>
					<path class="st2" d="M24.3,27.9L24.3,27.9c-2.8,0-5,2.3-5,5c0,2.8,2.3,5,5,5s5-2.3,5-5C29.4,30.2,27.1,27.9,24.3,27.9z
						 M28.5,31.2c-0.6-0.1-1,0-1.5,0.2c-0.5,0.1-0.9,0.4-1.3,0.7c-0.1-0.1-0.1-0.3-0.3-0.3h-0.1c0.4-0.3,0.8-0.6,1.1-1
						c0.3-0.4,0.6-0.9,0.7-1.4C27.7,29.9,28.2,30.5,28.5,31.2z M26.8,29.2c-0.5,0.3-0.8,0.6-1.1,1c-0.3,0.4-0.6,0.9-0.7,1.4
						c-0.1-0.1-0.3-0.1-0.5-0.1c0.2-0.5,0.3-1,0.3-1.5c0-0.6-0.1-1-0.3-1.5C25.4,28.5,26.1,28.7,26.8,29.2z M24.2,28.4
						c-0.2,0.5-0.3,1-0.3,1.5c0,0.5,0.1,1,0.3,1.5c-0.1,0-0.3,0.1-0.4,0.1l0,0c-0.1-0.5-0.3-1-0.6-1.4c-0.3-0.5-0.6-0.8-1-1.1
						C22.8,28.6,23.5,28.4,24.2,28.4z M21.9,29.1c0.1,0.6,0.3,1,0.6,1.5c0.3,0.4,0.6,0.8,1,1.1c-0.1,0.1-0.2,0.1-0.3,0.3
						c-0.3-0.4-0.8-0.7-1.2-0.9c-0.5-0.3-1-0.4-1.5-0.4C20.8,30,21.3,29.5,21.9,29.1z M19.9,32.9c0-0.7,0.1-1.4,0.5-2
						c0.3,0.4,0.8,0.8,1.2,1c0.4,0.2,0.9,0.4,1.4,0.4c-0.1,0.1-0.1,0.2-0.1,0.3c-0.5-0.1-1-0.2-1.5-0.1
						C20.9,32.5,20.3,32.6,19.9,32.9L19.9,32.9z M19.9,33.3c0.5,0.3,1,0.3,1.6,0.3c0.5,0,1-0.1,1.4-0.3c0,0.1,0.1,0.3,0.1,0.3
						c-0.5,0.1-0.9,0.3-1.2,0.6c-0.5,0.3-0.9,0.8-1,1.3C20.2,34.8,19.9,34,19.9,33.3z M20.8,35.6c0.6,0,1.1-0.3,1.5-0.6
						c0.3-0.3,0.7-0.6,1-1c0.1,0.1,0.2,0.2,0.3,0.3l0,0c-0.3,0.3-0.6,0.8-0.7,1.2c-0.3,0.8-0.3,1.6-0.1,1.7
						C21.9,36.8,21.2,36.3,20.8,35.6z M24.3,37.4c-0.6,0-1.1-0.1-1.6-0.3c0.3,0.1,0.7-0.6,1-1.4c0.2-0.4,0.3-0.9,0.3-1.3
						c0.1,0,0.2,0.1,0.3,0l0,0c-0.1,0.5-0.1,0.9,0.1,1.4c0.1,0.8,0.5,1.5,0.8,1.5C24.9,37.4,24.6,37.4,24.3,37.4z M25.2,37.3
						c0.2-0.1,0.3-0.8,0.1-1.7c-0.1-0.5-0.2-0.9-0.5-1.3c0.1-0.1,0.2-0.1,0.3-0.1l0,0c0.2,0.4,0.5,0.8,0.8,1.2
						c0.3,0.5,0.8,0.8,1.4,0.9C26.7,36.8,25.9,37.2,25.2,37.3z M27.5,36.2c-0.1-0.6-0.3-1.1-0.8-1.5c-0.3-0.3-0.7-0.6-1.1-0.9
						c0.1-0.1,0.1-0.2,0.2-0.3h0.1c0.4,0.3,0.8,0.5,1.3,0.6c0.5,0.2,1,0.2,1.6,0.1C28.5,34.9,28.1,35.6,27.5,36.2z M27.3,33.1
						c-0.5-0.1-1-0.1-1.5-0.1c0-0.1,0-0.1,0-0.1c0-0.1,0-0.2-0.1-0.3l0,0c0.5,0,1-0.1,1.5-0.3c0.6-0.1,1-0.4,1.4-0.8
						c0.3,0.8,0.3,1.6,0.1,2.3C28.4,33.5,27.9,33.2,27.3,33.1z"/>
				</g>
			</g>
			<g>
				<path class="st1" d="M70.4,29.7H32.8c-0.1,0-0.1,0.1-0.1,0.1s0.1,0.1,0.1,0.1h37.7c0.1,0,0.1-0.1,0.1-0.1
					C70.5,29.7,70.5,29.7,70.4,29.7z"/>
				<path class="st1" d="M7.7,19.9L7.7,19.9c-0.4,2.2-0.6,4.5-0.7,6.7c2.8,0.1,4.1,0,4.1-0.5c-0.1-2.8-0.5-4.7-1.2-5.9
					C9.3,19.9,8.4,19.7,7.7,19.9z"/>
				<path class="st1" d="M29.6,22.3c-0.6-0.1-1.2-0.1-1.7-0.1l0,0c-0.6-0.1-1.2-0.1-1.7,0h-0.1c-0.1,0.1-0.3,0.2-0.2,0.3
					c0,0.2,0.2,0.3,0.4,0.4c0.6,0.1,1.1,0.1,1.7,0.1c1.1,0,1.9-0.1,1.9-0.3l0,0C29.8,22.5,29.7,22.3,29.6,22.3z"/>
				<path class="st1" d="M25.2,18.5c0.8-1.7,1.9-4.1,3.2-7c-3.1-0.1-7.8,0.1-14,0.6c-0.7,0.4-1.9,2.3-3.3,5.7l0,0
					C15.3,18.1,20.1,18.3,25.2,18.5z"/>
				<path class="st1" d="M27.6,18.8c1.7,0.1,3.2,0.2,4.9,0.3l0,0c0.1,0,0.3,0,0.4,0l0,0c11.5,0.6,22.2,1.1,36.3,1.3
					c-6.8-4.7-11.8-7.4-15.1-8.1c-2.2-0.5-4.8-0.7-8-0.9l0,0l0,0h-1.4c-2.6-0.1-5.5-0.1-8.7-0.1c-2.6,0-4.6,0.1-5.2,0.4
					C30.3,11.8,28.4,16.7,27.6,18.8L27.6,18.8z"/>
				<path class="st1" d="M48.5,23.6c0.6,0.1,1.1,0.1,1.7,0.1c1.1,0,1.9-0.1,1.9-0.3l0,0c0.1-0.1-0.1-0.3-0.2-0.3
					c-0.6-0.1-1.2-0.1-1.7-0.1l0,0c-0.6-0.1-1.2-0.1-1.7,0h-0.1c-0.1,0.1-0.3,0.2-0.2,0.3C48.1,23.5,48.3,23.6,48.5,23.6z"/>
				<path class="st1" d="M89.7,24.1c-1.5-0.3-3-0.6-4.5-0.6c-0.1,1.3,1.1,2.3,3.5,3.2c2.3,1,3.7,1.5,4.4,1.4
					C92.6,26.4,91.3,25,89.7,24.1z"/>
				<path class="st1" d="M92.5,33L92.5,33c-0.2,0-0.3,0.6-0.3,1.2c0,0.7,0.1,1.2,0.3,1.2s0.3-0.6,0.3-1.2S92.7,33,92.5,33z"/>
				<path class="st1" d="M93.1,28.2L93.1,28.2L93.1,28.2L93.1,28.2z"/>
				<path class="st1" d="M11.6,20.9c21.8,0.3,46.2,1.2,73.1,2.8c0.3-0.2-3.7-0.5-12.3-1C32.4,20.9,12.2,20.3,11.6,20.9z"/>
				<g>
					<path class="st1" d="M7.7,19.9L7.7,19.9c-0.4,2.2-0.6,4.5-0.7,6.7c2.8,0.1,4.1,0,4.1-0.5c-0.1-2.8-0.5-4.7-1.2-5.9
						C9.3,19.9,8.4,19.7,7.7,19.9z"/>
					<path class="st1" d="M29.6,22.3c-0.6-0.1-1.2-0.1-1.7-0.1l0,0c-0.6-0.1-1.2-0.1-1.7,0h-0.1c-0.1,0.1-0.3,0.2-0.2,0.3
						c0,0.2,0.2,0.3,0.4,0.4c0.6,0.1,1.1,0.1,1.7,0.1c1.1,0,1.9-0.1,1.9-0.3l0,0C29.8,22.5,29.7,22.3,29.6,22.3z"/>
					<path class="st1" d="M70.4,29.7H32.8c-0.1,0-0.1,0.1-0.1,0.1s0.1,0.1,0.1,0.1h37.7c0.1,0,0.1-0.1,0.1-0.1
						C70.5,29.7,70.5,29.7,70.4,29.7z"/>
					<path class="st1" d="M48.5,23.6c0.6,0.1,1.1,0.1,1.7,0.1c1.1,0,1.9-0.1,1.9-0.3l0,0c0.1-0.1-0.1-0.3-0.2-0.3
						c-0.6-0.1-1.2-0.1-1.7-0.1l0,0c-0.6-0.1-1.2-0.1-1.7,0h-0.1c-0.1,0.1-0.3,0.2-0.2,0.3C48.1,23.5,48.3,23.6,48.5,23.6z"/>
					<path class="st1" d="M27.6,18.8c1.7,0.1,3.2,0.2,4.9,0.3l0,0c0.1,0,0.3,0,0.4,0l0,0c11.5,0.6,22.2,1.1,36.3,1.3
						c-6.8-4.7-11.8-7.4-15.1-8.1c-2.2-0.5-4.8-0.7-8-0.9l0,0l0,0h-1.4c-2.6-0.1-5.5-0.1-8.7-0.1c-2.6,0-4.6,0.1-5.2,0.4
						C30.3,11.8,28.4,16.7,27.6,18.8L27.6,18.8z"/>
					<path class="st1" d="M25.2,18.5c0.8-1.7,1.9-4.1,3.2-7c-3.1-0.1-7.8,0.1-14,0.6c-0.7,0.4-1.9,2.3-3.3,5.7l0,0
						C15.3,18.1,20.1,18.3,25.2,18.5z"/>
					<path class="st1" d="M89.7,24.1c-1.5-0.3-3-0.6-4.5-0.6c-0.1,1.3,1.1,2.3,3.5,3.2c2.3,1,3.7,1.5,4.4,1.4
						C92.6,26.4,91.3,25,89.7,24.1z"/>
					<path class="st1" d="M93.1,28.2L93.1,28.2L93.1,28.2L93.1,28.2z"/>
					<path class="st1" d="M11.6,20.9c21.8,0.3,46.2,1.2,73.1,2.8c0.3-0.2-3.7-0.5-12.3-1C32.4,20.9,12.2,20.3,11.6,20.9z"/>
					<path class="st1" d="M92.5,33L92.5,33c-0.2,0-0.3,0.6-0.3,1.2c0,0.7,0.1,1.2,0.3,1.2s0.3-0.6,0.3-1.2S92.7,33,92.5,33z"/>
					<g>
						<path class="st1" d="M79.4,27.5L79.4,27.5c-2.9,0-5.3,2.3-5.3,5.3c0,3,2.3,5.3,5.3,5.3s5.3-2.3,5.3-5.3
							C84.7,29.9,82.3,27.5,79.4,27.5z M79.4,37.9c-2.8,0-5-2.3-5-5c0-2.8,2.3-5,5-5s5,2.3,5,5C84.5,35.6,82.2,37.9,79.4,37.9z"/>
						<path class="st2" d="M79.4,25.7L79.4,25.7c-3.9,0-7.1,3.2-7.1,7.1l0,0c0,3.9,3.2,7.1,7.1,7.1s7.2-3.2,7.2-7.1
							C86.5,28.9,83.3,25.7,79.4,25.7z M79.4,38.2c-2.9,0-5.3-2.3-5.3-5.3c0-3,2.3-5.3,5.3-5.3l0,0c2.9,0,5.3,2.3,5.3,5.3
							C84.7,35.8,82.3,38.2,79.4,38.2z"/>
						<path class="st2" d="M79.4,27.8c-2.8,0-5,2.3-5,5c0,2.8,2.3,5,5,5s5-2.3,5-5C84.5,30.1,82.2,27.8,79.4,27.8z M83.6,31.1
							c-0.6-0.1-1.1,0-1.6,0.2c-0.5,0.1-0.9,0.4-1.2,0.7c-0.1-0.1-0.1-0.3-0.3-0.3l0,0c0.4-0.3,0.8-0.6,1.1-1
							c0.3-0.4,0.6-0.9,0.7-1.4C82.8,29.8,83.3,30.4,83.6,31.1z M81.9,29.1L81.9,29.1c-0.5,0.3-0.8,0.6-1.1,1
							c-0.3,0.4-0.6,0.8-0.7,1.3c-0.1-0.1-0.3-0.1-0.5-0.1c0.2-0.5,0.3-1,0.3-1.5c0-0.6-0.1-1-0.3-1.5
							C80.5,28.4,81.2,28.6,81.9,29.1z M79.3,28.3c-0.2,0.5-0.3,1-0.3,1.5c0,0.5,0.1,1,0.3,1.5c-0.1,0-0.3,0.1-0.4,0.1l0,0
							c-0.1-0.5-0.3-1-0.6-1.4c-0.3-0.5-0.6-0.8-1-1.2C77.8,28.5,78.5,28.3,79.3,28.3z M76.9,29.1c0.1,0.6,0.3,1,0.6,1.5
							s0.6,0.8,1,1.1c-0.1,0.1-0.2,0.1-0.3,0.3V32c-0.3-0.3-0.8-0.7-1.2-0.9c-0.5-0.3-1-0.4-1.5-0.4C75.8,29.9,76.3,29.4,76.9,29.1z
							 M74.9,32.8c0-0.7,0.1-1.4,0.5-2c0.3,0.4,0.8,0.8,1.2,1c0.4,0.2,0.9,0.4,1.4,0.4c-0.1,0.1-0.1,0.2-0.1,0.3l0,0
							c-0.5-0.1-1-0.2-1.5-0.1C75.9,32.4,75.4,32.5,74.9,32.8L74.9,32.8z M74.9,33.1c0.5,0.3,1,0.3,1.6,0.2c0.5,0,1-0.1,1.4-0.3
							c0,0.1,0.1,0.3,0.1,0.3l0,0c-0.5,0.1-0.9,0.3-1.2,0.7c-0.5,0.3-0.9,0.8-1,1.3C75.2,34.7,74.9,34,74.9,33.1z M75.8,35.5
							c0.6,0,1.1-0.3,1.5-0.6c0.3-0.3,0.7-0.6,1-1c0.1,0.1,0.2,0.2,0.3,0.3l0,0c-0.3,0.3-0.6,0.8-0.7,1.2c-0.3,0.8-0.3,1.6-0.1,1.7
							C76.9,36.7,76.3,36.2,75.8,35.5z M79.4,37.3c-0.6,0-1.1-0.1-1.6-0.3c0.3,0.1,0.7-0.6,1-1.4c0.2-0.4,0.3-0.9,0.3-1.3
							c0.1,0,0.2,0.1,0.3,0l0,0c-0.1,0.5-0.1,0.9,0.1,1.4c0.1,0.8,0.5,1.5,0.8,1.5C79.9,37.3,79.7,37.3,79.4,37.3z M80.3,37.3
							c0.2-0.1,0.3-0.8,0.1-1.7c-0.1-0.5-0.2-0.9-0.5-1.3c0.1-0.1,0.2-0.1,0.3-0.1l0,0l0,0l0,0c0.2,0.4,0.4,0.8,0.8,1.2
							c0.3,0.5,0.8,0.8,1.4,0.9C81.8,36.7,81.1,37.1,80.3,37.3z M82.5,36.1c-0.1-0.6-0.3-1.1-0.8-1.5c-0.3-0.3-0.7-0.6-1.1-0.8
							c0.1-0.1,0.1-0.2,0.2-0.3l0,0c0.4,0.3,0.8,0.5,1.3,0.6c0.6,0.2,1.1,0.2,1.6,0.1C83.6,34.8,83.1,35.5,82.5,36.1z M82.4,33.1
							c-0.5-0.1-1-0.1-1.5-0.1v-0.1c0-0.1,0-0.2,0-0.3l0,0c0.5,0,1-0.1,1.5-0.3c0.6-0.1,1-0.4,1.4-0.8c0.3,0.8,0.3,1.6,0.1,2.3
							C83.4,33.4,82.9,33.1,82.4,33.1z"/>
						<path class="st3" d="M80.3,34.1L80.3,34.1L80.3,34.1L80.3,34.1z"/>
					</g>
					<path class="st2" d="M95,31.7c-0.4-4.8-1.6-7.6-3.4-8.4c-4.1-1.6-10-3-17.8-4.2c-1,0.3-1.1,0.3-1.8-0.3l0,0
						c-3.7-2.1-7.2-4-10.5-5.7c-2.8-1.5-5.7-2.4-8.8-2.6c-6.8-0.8-28.1-0.9-38.6,0.5c-2.2,0.2-6.7,7.2-6.7,8.2
						c-0.5,2.5-0.8,5-0.8,7.6c-0.7,0.1-1.2,0.1-1.4,0.4c-0.3,0.6-0.3,2-0.1,4c0.3,1.9,0.1,2.1,1.9,2.7c1.9,0.6,3,0.8,6.2,1.5
						c2.1,0.3,3.3,0.5,3.3-2.6c0-3.5,2.2-7.5,7.7-7.7c5.5-0.1,7.7,4.8,7.7,7.7c0,1.5-0.3,3.8,1.4,3.8c10-0.2,21.6-0.1,37.9,0.1
						c-0.2-1.3,0-0.6,0.2-3.9s2.4-7.7,7.7-7.7s7.9,4.1,7.7,7.7c-0.1,3.7-0.1,3.2-0.1,4.4c1,0,5.5-0.3,6.5-0.8
						C94.6,35.1,95.1,33.4,95,31.7z M30.7,11.7c0.6-0.3,2.6-0.4,5.2-0.4c3.2,0,6.2,0,8.7,0.1H46l0,0l0,0c3.2,0.2,5.9,0.5,8.1,0.9
						c3.3,0.7,8.3,3.3,15,8.1C55,20.1,44.3,19.7,32.8,19l0,0c-0.1,0-0.3,0-0.4,0l0,0c-1.6-0.1-3.2-0.2-4.9-0.3h-0.1
						C28.4,16.7,30.3,11.8,30.7,11.7z M14.3,12.2c6.2-0.5,10.9-0.7,14-0.6c-1.2,3-2.3,5.3-3.2,7c-5.2-0.2-9.9-0.4-14.2-0.6l0,0
						C12.5,14.4,13.6,12.6,14.3,12.2z M7,26.6c0.1-2.3,0.3-4.5,0.7-6.7l0,0c0.8-0.1,1.6,0,2.3,0.3c0.7,1.2,1.1,3.1,1.2,5.9
						C11.1,26.6,9.8,26.7,7,26.6z M29.8,22.6L29.8,22.6c0,0.2-0.8,0.3-1.9,0.3c-0.6,0-1.1,0-1.7-0.1c-0.2,0-0.4-0.2-0.4-0.4
						c-0.1-0.1,0.1-0.3,0.2-0.3h0.1c0.6-0.1,1.2-0.1,1.7,0l0,0c0.6,0,1.2,0.1,1.7,0.1C29.7,22.3,29.8,22.5,29.8,22.6z M70.4,29.9
						H32.7c-0.1,0-0.1-0.1-0.1-0.1s0.1-0.1,0.1-0.1h37.7c0.1,0,0.1,0.1,0.1,0.1C70.5,29.8,70.5,29.9,70.4,29.9z M48.3,22.8
						L48.3,22.8c0.6-0.1,1.2-0.1,1.8,0l0,0c0.6,0,1.2,0.1,1.7,0.1c0.1,0.1,0.2,0.2,0.2,0.3l0,0c0,0.2-0.8,0.3-1.9,0.3
						c-0.6,0-1.1,0-1.7-0.1c-0.2,0-0.4-0.2-0.4-0.4C48,23,48.1,22.9,48.3,22.8z M84.6,23.7c-26.9-1.7-51.2-2.6-73.1-2.8
						c0.6-0.6,20.9,0,60.8,1.8C80.9,23.2,85,23.5,84.6,23.7z M92.5,35.4c-0.2,0-0.3-0.6-0.3-1.2s0.1-1.2,0.3-1.2l0,0
						c0.2,0,0.3,0.6,0.3,1.2S92.7,35.4,92.5,35.4z M93.1,28.2L93.1,28.2c-0.7,0.1-2.1-0.4-4.4-1.4c-2.4-0.8-3.6-1.9-3.5-3.2
						c1.5,0.1,3,0.3,4.5,0.6C91.3,25,92.6,26.4,93.1,28.2L93.1,28.2L93.1,28.2z"/>
				</g>
			</g>
		</g>
		<path class="st2" d="M45.6,19.7c0.7,0,1.5,0,2.1,0.1c-0.4-2.8-1-5.6-1.7-8.3c-0.5,0-1-0.1-1.5-0.1h-0.1
			C44.9,14.3,45.2,17.2,45.6,19.7z"/>
		<path class="st2" d="M33.5,11.4L33.5,11.4c-0.3,2.1-0.8,5.1-1.1,7.7c0.1,0,0.3,0,0.3,0c0.3-2.9,0.8-5.9,1-7.7
			C33.7,11.4,33.7,11.4,33.5,11.4z"/>
		<path class="st4" d="M32.4,19.1c0.1,0,0.3,0,0.4,0l0,0C32.7,19.1,32.6,19,32.4,19.1C32.4,19,32.4,19.1,32.4,19.1z"/>
		<path class="st2" d="M60.9,20c1.9,0,5,0.1,7,0.1c-0.6-0.6-2.8-1.9-5.7-3.7l0,0c-0.6-0.1-1,0.1-1.5,0.3c-0.6,0.8-0.8,1.7-0.7,2.6
			C60.2,19.7,60.5,19.9,60.9,20z"/>
	</g>
</g>
</svg>
